<svg id="SvgjsSvg1001" width="288" height="288" xmlns="http://www.w3.org/2000/svg" version="1.1" xmlns:xlink="http://www.w3.org/1999/xlink" xmlns:svgjs="http://svgjs.com/svgjs"><defs id="SvgjsDefs1002"></defs><g id="SvgjsG1008" transform="matrix(1,0,0,1,0,0)"><svg xmlns="http://www.w3.org/2000/svg" width="288" height="288" fill-rule="evenodd" stroke-linejoin="round" stroke-width="28.222" preserveAspectRatio="xMidYMid" version="1.2" viewBox="0 0 4233 3969"><defs class="ClipPathGroup"><clipPath id="a" clipPathUnits="userSpaceOnUse"><rect width="4233" height="3969" fill="#12c757" class="color000 svgShape"></rect></clipPath></defs><g class="SlideGroup color000 svgShape" fill="#12c757"><g class="Slide color000 svgShape" clip-path="url(#a)" fill="#12c757"><g class="Page color000 svgShape" fill="#12c757"><g class="Graphic color000 svgShape" fill="#12c757"><rect width="4233" height="3969" fill="none" class="BoundingBox"></rect><defs><clipPath id="b" clipPathUnits="userSpaceOnUse"><path d="M 0,0 L 4232,0 4232,3968 0,3968 0,0 Z" fill="#12c757" class="color000 svgShape"></path></clipPath></defs><g clip-path="url(#b)" fill="#12c757" class="color000 svgShape"><path d="M 1143,3357 C 1518,3391 1873,3542 2177,3770 2396,3931 2690,4042 3042,3910 3351,3793 3534,3450 3597,3111 3666,2759 3811,2426 4012,2129 4232,1809 4298,1391 4153,1000 3981,537 3560,238 3095,201 2854,183 2613,132 2383,50 2195,-16 1984,-19 1783,56 1521,153 1333,362 1251,611 1164,878 963,1087 706,1198 704,1198 704,1201 701,1201 164,1436 -119,2047 50,2608 183,3058 667,3312 1143,3357 L 1143,3357 Z" fill="#12c757" class="color000 svgShape"></path></g></g></g></g></g></svg></g></svg>